<<<<<<< HEAD
<mxGraphModel><root><mxCell id="0"/><mxCell id="1" parent="0"/></root></mxGraphModel>
=======
<mxfile host="app.diagrams.net" modified="2020-12-08T08:31:38.981Z" agent="5.0 (Windows NT 10.0; Win64; x64) AppleWebKit/537.36 (KHTML, like Gecko) Chrome/87.0.4280.88 Safari/537.36" etag="Nk72jB89BD3LmGuoyp_t" version="13.11.0" type="github"><diagram id="Acs5Q2Zga_sFAattv0zw" name="Page-1">5V1bc5s4FP41etwMIAHi0fiyfeg9u9P2kRjZpsWWK+Mm7q9fCYRtELaVJiDjnclM4CBxOfp07pIBHC6f/mbRevGOxiQFjhU/ATgCjmMHAeT/BGUnKRYOCsqcJbGkHQj3yW9SNpTUbRKTTaVhRmmaJesqcUpXKzLNKrSIMfpYbTajafWp62hOFML9NEpV6pckzhYFFTv+gf6GJPNF+WTbk9+3jMrG8ks2iyimj0ckOAZwyCjNiqPl05CkgnslX4p+kxNX9y/GyCrT6eB+/h59/fTjJ3t8TzGdfKLvFp/+8uS7Zbvyg0nMv1+eUpYt6JyuonR8oIaMblcxEXe1+NmhzVtK15xoc+J3kmU7OZjRNqOctMiWqbxaPFM86OSnSNKGbtmUnHn/EhIRm5PsTDu0ZziHKqFLkrEd78dIGmXJr+p7RBIy8327A1f5gWTsM5gs7/srSrfySZ9JNM1GH97d8S+OCVMHIU05wAWzHxdJRu7XUc6FRz7Jmlj5i7CMPJ1npvrxsoMn8SlnKJSnjwe02yWEF0dIx1ZL3HJNQJLziu2+yv75yTdxcueWp6On44ujnTx7RSg7fYCyo0B5Q7L7LMrINWHYdk2D2DcL4gNuvx1fax/EsA8ghgqIZ5R/1r/r+MpwvMenMRwHCqt6bjAgTYBikwBFCtenjHBsnkDogb92Jyh1/Jq49TRh6rUFU1s1sXqOU6yJU9tqHqpugIpVc2C6IPE2JV8o+6EMwQVoVnH8CkBF1wdUVff0HKilo34ZqY5JpJavecT4KI4/c+/7H3ovMav6YaYBCy3jgHUVvr3vO2J1PS3bbNTAvzlRoc14zyjjVScXjD0QYDCYgLELAgsMPEEZjMAA5pQhGODPRShnHIiWYdFgDEJXHGAMAk7BgBvq2BVdcADwSN4Nj4Uc4k9seowPghCEuGw6VDDAFnT5sN1ctvxeX1q5bkVaoabYkdsgrfYi7PXHTjWdGcm2bKVOHV237tXZZteEPDIerbBvzs2zPV1RY9TRK1+zEhr+uSWb7CrtZ8+4OeKojt63vkNV19VzjLp6juq59N4Q1Oa8WddF9bKTmeDB0zph/Pl09U+yJMDxUv4N4QP3Yry5OLrfrabXZC2gqrXgN1kLfpdqz1F9m54j2tF1xp2XujZ51wFj0e6owZomq2xzdOePgnCAgBPU4jG2ZdVGsbjlYUz37/aCYVaV7GOSLTK6Fa8W8y/eNQ772+iBpNWhitJkvuLHUz4y3NaHoZgRyTRKB/LCMonjAhVkk/yOHvL7CVxI1vCbuyFwR+emlCxlkJ3BvoDgGBBn8HxyAlp3tutX56DE+/NG/TCsZRM6m2043Orz8TXGTg3brAmbUbYU0u0qjKR9xlzyFOsmbVozkuDNRcPLD7go16BZG0mNHJTx8GGUpg/R9McXLnnGNcVtGMCedxnATqcAdm9PMevmHV0jitlWMiWlJTY51aMu9uo9WtLlanxH6oOr0AU2smtcscxrg5tLOUFdKxca9dugaruU2mBEZoQxEgutkIZcLZhHrmVraAGrU+DenBaA2maM2foo1YyJ4li8NxXuibRk3iab7Apg61Zh6yPj8vbm8nZQ13iBRvN2ULUNolWylIa2kLGWSMGJpJwl0mnhCAR5di50AZ7kl3yRqROZtgAM8oMwJ4q0nJ/n9IL8AF0B7q2qJ+9ipIpru1Pc31wSCeomkaDRJBJU41tJnJIc8hzUHOw4z1KHgzyhjEAYij+RhOYUWxkk4zIcIRXL3cpwdHMRFKib60BGIyjo9pwVbca/1Fn5M8/frnus8ILj79eD+LADvx+qObBShcOjchpFTwtd7oiqGSEIJwAXunwIgklz48EEhEFeujMBAWqqx1HuU4enuQxbgGvR/QZb2Gmsx4GtRfJU9dKv6Yt0Yw3opTbA6wTu3Poq0Gd2aGf6IjUUkpfFBbl1jYUVIuZoIGZYUNgonDhoMlbqWe6YRHGarMhdnMQinF5k9fJnWLMo3ZiPr9sQV1nulFm4Y/sm6NS+ubnQCtINrSCjoRV0c06SPuONCEjHsqqTD0rH+ZSAVDoEdhcCUg25NQnIF4lDL1oKUbd62KxzCFgZ216BdPSCy9Kx28AzMrIrwhUsQUe6gT5Dvkrd9XCtC8aOVzd2ntuhJi1amvxqxLi5qLV3FUnoREB4X5HkWGXUVjK8XPv6pyVJZU1D7aZu9QbtFSwhNQgtzVkcnrNr++VpKkIbNaysbBTa7W0bokaORJUfEBV+hUrsu6GlXa18JSUklv1MV7TeoyVpq4aSrq2kUCkjMV9T6Ko6qu/l/652TZbRtKaruox9X/Kiz3mjiTVX1eX5wouTCsWgQrbrUXmnYa0W7lQhq2lJsZp1MMyNm2I169GyVrmeNl8cG45zI8kHeJybRNwAGuVGUmE2qe6ZQcYjq874oMF/hQ2cby/q7t1c+tLVNX48o+lLX60M6XbfLw/vCfnOX3cWuhA+yM8+EpZwDggHMifG0WZRmyXdDqNjJMCA6zXN0DtvwtY7BBeqprF9tn07Bq/blDttEsThEGCnr4I4UPPYunLYbk0O31w1Q+lfXJbDL53AL2N8A+T/L4z3jTL+5Ho94Vh/WBUbnRh2r73aviU21N30tjX32ru5hKzn6ALWaEK2fM3jzUCTVfyGjznZfGQJZUm2uwrUKo5GI2rL5Fk3qO379uFeZ4GIP4upBnZ1yJ1Lq/Isxz3box0L01MDJYxM6XK9zchwy8S4FLtjEda8VcW0aLTfiK9oJat4pk13MDwZlRrIhrnoWM5dl7PRV3Vv3wOFnq+rRAKTSsRXlUjfg+PanPdPTJSO1LealshDtFyHJxuR/HtsyueY81I9tJcJpehoSp3aqEFwtBapLX+y5Hi/aS68U5KR67B8ajsH2Z5j2l731Qhr8VMeV8EwXP89hDYZxk8PP2JTWBSH3wKC4/8A</diagram></mxfile>
>>>>>>> f9a0018b6fba79ccf13c3f0cd92d0be5012120f7
